<svg width="1440" height="104" viewBox="0 0 1440 104" fill="none" xmlns="http://www.w3.org/2000/svg">
<rect width="1440" height="104" fill="#FAFAFA"/>
<path d="M184.217 36.1024C183.893 35.6058 183.419 35.5915 182.88 35.5752C182.818 35.5734 182.756 35.5715 182.694 35.5689C182.646 35.5667 182.593 35.5676 182.538 35.5685C182.319 35.572 182.063 35.5761 181.934 35.3921C181.784 35.1788 181.798 34.7666 181.81 34.4263C181.814 34.3188 181.817 34.2184 181.815 34.1338C181.794 33.3433 181.75 32.5036 181.445 32.2229C181.215 32.0123 180.527 32.0415 179.892 32.0684C179.686 32.0771 179.486 32.0856 179.309 32.0856H165.796C165.524 32.0856 165.239 32.0634 164.958 32.0417C164.412 31.9993 163.885 31.9583 163.511 32.0856C162.968 32.2712 162.931 33.2467 162.896 34.1652L162.894 34.2146C162.865 34.9729 162.677 35.558 162.055 35.4991C161.33 35.4316 160.609 35.4103 160.282 36.0659C159.895 36.8416 159.975 37.6536 160.118 39.1079C160.138 39.3157 160.16 39.5365 160.182 39.7723H184.426C184.44 39.6 184.455 39.4299 184.47 39.2625C184.583 37.9541 184.682 36.814 184.217 36.1024Z" fill="#8047F8"/>
<path fill-rule="evenodd" clip-rule="evenodd" d="M162.07 41.2147C162.449 46.3395 162.823 51.4701 163.198 56.6009L163.198 56.604C163.401 59.3898 163.605 62.1757 163.809 64.9606H164.582C164.635 65.3965 164.695 65.9347 164.759 66.5021C164.888 67.6539 165.03 68.9264 165.15 69.7083H165.236C166.024 69.42 171.471 67.0916 171.474 57.8218C171.473 57.7954 171.473 57.7689 171.476 57.7427H170.13C170.065 57.7421 170.002 57.7203 169.951 57.6808C169.899 57.6413 169.862 57.5861 169.846 57.5238C169.715 57.1999 169.609 56.8664 169.529 56.5264C168.738 56.9736 168.109 57.6564 167.733 58.4775C167.376 57.6365 167.329 56.6983 167.601 55.8267C167.873 54.9551 168.446 54.2057 169.22 53.7093C169.229 51.0043 170.242 48.3968 172.066 46.3804L172.095 46.3553C172.148 46.3095 172.215 46.284 172.286 46.2834C172.327 46.2838 172.367 46.2925 172.404 46.309C172.442 46.3257 172.475 46.35 172.503 46.3804C174.348 48.3996 175.355 51.0321 175.324 53.7531C176.112 54.2356 176.697 54.9845 176.969 55.8608C177.241 56.7371 177.183 57.6813 176.804 58.5181C176.43 57.6957 175.801 57.0123 175.008 56.5671C174.959 56.8966 174.87 57.219 174.742 57.527C174.698 57.6583 174.609 57.7427 174.521 57.7427H173.085C173.088 57.7584 173.089 57.7742 173.09 57.7901L173.091 57.7937V57.8014C173.091 57.815 173.091 57.8287 173.091 57.8424C173.11 67.3783 178.902 69.5428 179.39 69.7083H179.557C179.6 68.9572 179.739 67.9208 179.874 66.9104C179.967 66.2142 180.059 65.5302 180.116 64.9606H180.899C181.149 61.4527 181.407 57.9546 181.664 54.4564L181.664 54.4545L181.664 54.4535C181.994 49.9789 182.324 45.5042 182.638 41.0087H162.12C162.061 41.0202 162.065 41.1168 162.07 41.2147ZM172.286 46.2834L172.284 46.2834H172.288L172.286 46.2834Z" fill="#8047F8"/>
<path d="M191.309 37.6982C191.309 36.4332 191.745 35.4527 192.616 34.757C193.504 34.0454 194.835 33.6896 196.61 33.6896C197.783 33.6896 198.781 33.8003 199.605 34.0217V37.295C198.718 37.0262 197.838 36.8917 196.966 36.8917C196.111 36.8917 195.556 36.9945 195.302 37.2001C195.049 37.3899 194.922 37.6745 194.922 38.054V46.0238C194.922 46.7829 195.516 47.1624 196.705 47.1624C197.909 47.1624 198.9 47.0438 199.676 46.8066V50.0088C198.821 50.246 197.783 50.3646 196.562 50.3646C194.787 50.3646 193.464 50.0167 192.592 49.3209C191.737 48.6251 191.309 47.6447 191.309 46.3796V37.6982Z" fill="#403937"/>
<path d="M206.62 39.9516C206.62 39.3507 206.288 39.0502 205.622 39.0502C204.956 39.0502 204.624 39.3507 204.624 39.9516V46.5457C204.624 47.1466 204.956 47.447 205.622 47.447C206.288 47.447 206.62 47.1466 206.62 46.5457V39.9516ZM201.105 39.833C201.105 38.6312 201.478 37.6982 202.223 37.0341C202.983 36.3541 204.117 36.0141 205.622 36.0141C207.128 36.0141 208.253 36.3541 208.998 37.0341C209.758 37.6982 210.139 38.6312 210.139 39.833V46.6643C210.139 47.8661 209.758 48.807 208.998 49.4869C208.253 50.1511 207.128 50.4832 205.622 50.4832C204.117 50.4832 202.983 50.1511 202.223 49.4869C201.478 48.807 201.105 47.8661 201.105 46.6643V39.833Z" fill="#403937"/>
<path d="M212.449 36.0853C212.449 33.4128 213.86 32.0766 216.681 32.0766C217.045 32.0766 217.481 32.1162 217.988 32.1952V34.9467C217.735 34.9151 217.497 34.8993 217.275 34.8993C216.467 34.8993 216.063 35.2788 216.063 36.0378V36.2513H217.988V39.0502H216.063V50.246H212.449V39.0502H211.094V36.2513H212.449V36.0853Z" fill="#403937"/>
<path d="M219.46 36.0853C219.46 33.4128 220.871 32.0766 223.691 32.0766C224.056 32.0766 224.492 32.1162 224.999 32.1952V34.9467C224.745 34.9151 224.508 34.8993 224.286 34.8993C223.478 34.8993 223.073 35.2788 223.073 36.0378V36.2513H224.999V39.0502H223.073V50.246H219.46V39.0502H218.105V36.2513H219.46V36.0853Z" fill="#403937"/>
<path d="M225.829 46.261V39.833C225.829 38.6312 226.202 37.6982 226.946 37.0341C227.691 36.3541 228.816 36.0141 230.322 36.0141C233.222 36.0141 234.672 37.2871 234.672 39.833V44.6481H229.276V45.9764C229.276 46.4508 229.403 46.7908 229.656 46.9964C229.926 47.1861 230.504 47.281 231.392 47.281C232.295 47.281 233.278 47.1229 234.339 46.8066V49.9376C233.23 50.238 232.041 50.3883 230.774 50.3883C227.477 50.3883 225.829 49.0125 225.829 46.261ZM229.276 41.9203H231.368V39.8804C231.368 39.2795 231.019 38.9791 230.322 38.9791C229.625 38.9791 229.276 39.2795 229.276 39.8804V41.9203Z" fill="#403937"/>
<path d="M236.09 46.261V39.833C236.09 38.6312 236.462 37.6982 237.207 37.0341C237.952 36.3541 239.077 36.0141 240.583 36.0141C243.483 36.0141 244.933 37.2871 244.933 39.833V44.6481H239.537V45.9764C239.537 46.4508 239.664 46.7908 239.917 46.9964C240.187 47.1861 240.765 47.281 241.653 47.281C242.556 47.281 243.539 47.1229 244.6 46.8066V49.9376C243.491 50.238 242.302 50.3883 241.035 50.3883C237.738 50.3883 236.09 49.0125 236.09 46.261ZM239.537 41.9203H241.629V39.8804C241.629 39.2795 241.28 38.9791 240.583 38.9791C239.886 38.9791 239.537 39.2795 239.537 39.8804V41.9203Z" fill="#403937"/>
<path d="M197.03 58.9797C197.03 57.8119 196.413 57.2281 195.178 57.2281H193.207V67.874H195.178C196.413 67.874 197.03 67.2771 197.03 66.0834V58.9797ZM191.823 56.0214H195.256C196.296 56.0214 197.083 56.2874 197.616 56.8194C198.149 57.3513 198.415 58.065 198.415 58.9602V66.1224C198.415 67.0436 198.155 67.7702 197.635 68.3022C197.115 68.8341 196.335 69.1001 195.295 69.1001H191.823V56.0214Z" fill="#403937"/>
<path d="M200.694 66.2781V60.8675C200.694 59.9463 200.954 59.2132 201.475 58.6683C202.008 58.1104 202.807 57.8314 203.874 57.8314C204.94 57.8314 205.727 58.1104 206.234 58.6683C206.754 59.2132 207.014 59.9463 207.014 60.8675V64.254H202.06V66.2197C202.06 66.8036 202.242 67.2382 202.606 67.5237C202.97 67.8091 203.536 67.9518 204.303 67.9518C205.07 67.9518 205.863 67.8351 206.682 67.6015V68.886C206.032 69.0936 205.259 69.1974 204.361 69.1974C201.917 69.1974 200.694 68.2243 200.694 66.2781ZM202.06 63.1057H205.688V60.8675C205.688 59.6479 205.083 59.0381 203.874 59.0381C202.664 59.0381 202.06 59.6479 202.06 60.8675V63.1057Z" fill="#403937"/>
<path d="M209.385 55.0872H210.77V69.1001H209.385V55.0872Z" fill="#403937"/>
<path d="M214.144 56.7804C213.585 56.7804 213.305 56.482 213.305 55.8852C213.305 55.2883 213.585 54.9899 214.144 54.9899C214.716 54.9899 215.002 55.2883 215.002 55.8852C215.002 56.482 214.716 56.7804 214.144 56.7804ZM213.461 58.1039H214.846V69.1001H213.461V58.1039Z" fill="#403937"/>
<path d="M221.985 58.026H223.389L220.931 69.1001H218.981L216.523 58.026H217.947L219.02 63.1057L219.976 68.127C220.366 65.9732 221.035 62.6062 221.985 58.026Z" fill="#403937"/>
<path d="M224.866 66.2781V60.8675C224.866 59.9463 225.126 59.2132 225.646 58.6683C226.18 58.1104 226.979 57.8314 228.046 57.8314C229.112 57.8314 229.899 58.1104 230.406 58.6683C230.926 59.2132 231.186 59.9463 231.186 60.8675V64.254H226.232V66.2197C226.232 66.8036 226.414 67.2382 226.778 67.5237C227.142 67.8091 227.708 67.9518 228.475 67.9518C229.242 67.9518 230.035 67.8351 230.854 67.6015V68.886C230.204 69.0936 229.43 69.1974 228.533 69.1974C226.089 69.1974 224.866 68.2243 224.866 66.2781ZM226.232 63.1057H229.86V60.8675C229.86 59.6479 229.255 59.0381 228.046 59.0381C226.836 59.0381 226.232 59.6479 226.232 60.8675V63.1057Z" fill="#403937"/>
<path d="M237.146 57.9676H237.633V59.2911H236.97C236.502 59.2911 236.079 59.4143 235.702 59.6609C235.585 59.7387 235.332 59.9139 234.942 60.1864V69.1001H233.557V58.026H234.883V58.8629C234.922 58.837 235.02 58.7656 235.176 58.6488C235.345 58.5321 235.442 58.4672 235.468 58.4542C235.507 58.4283 235.592 58.3764 235.722 58.2985C235.865 58.2207 235.969 58.1752 236.034 58.1623C236.112 58.1363 236.216 58.1039 236.346 58.065C236.541 58.0001 236.808 57.9676 237.146 57.9676Z" fill="#403937"/>
<path d="M243.567 58.026H244.952L241.909 72H240.583L241.187 69.1001H240.505L238.086 58.026H239.49L240.661 63.5339L241.519 68.127C241.779 66.596 242.065 65.0649 242.377 63.5339L243.567 58.026Z" fill="#403937"/>
<rect x="1087" y="33" width="143" height="38" rx="6" fill="#EBE5F9"/>
<path d="M1106 42.375C1103.99 42.3773 1102.07 43.1748 1100.66 44.5925C1099.24 46.0103 1098.44 47.9325 1098.44 49.9375C1098.44 56.4086 1105.31 61.2984 1105.6 61.5047C1105.72 61.5827 1105.86 61.6243 1106 61.6243C1106.14 61.6243 1106.28 61.5827 1106.4 61.5047C1106.69 61.2984 1113.56 56.4086 1113.56 49.9375C1113.56 47.9325 1112.76 46.0103 1111.34 44.5925C1109.93 43.1748 1108.01 42.3773 1106 42.375ZM1106 47.1875C1106.54 47.1875 1107.08 47.3488 1107.53 47.651C1107.98 47.9531 1108.33 48.3826 1108.54 48.8851C1108.75 49.3876 1108.8 49.9406 1108.7 50.474C1108.59 51.0074 1108.33 51.4974 1107.94 51.882C1107.56 52.2666 1107.07 52.5286 1106.54 52.6347C1106 52.7408 1105.45 52.6863 1104.95 52.4782C1104.45 52.27 1104.02 51.9176 1103.71 51.4653C1103.41 51.0131 1103.25 50.4814 1103.25 49.9375C1103.25 49.2082 1103.54 48.5087 1104.06 47.993C1104.57 47.4772 1105.27 47.1875 1106 47.1875Z" fill="#8047F8"/>
<path d="M1125.83 53.0967H1123.17V52.0234H1125.83C1126.34 52.0234 1126.76 51.9414 1127.08 51.7773C1127.4 51.6133 1127.63 51.3854 1127.77 51.0938C1127.92 50.8021 1128 50.4694 1128 50.0957C1128 49.7539 1127.92 49.4326 1127.77 49.1318C1127.63 48.8311 1127.4 48.5895 1127.08 48.4072C1126.76 48.2204 1126.34 48.127 1125.83 48.127H1123.47V57H1122.16V47.0469H1125.83C1126.58 47.0469 1127.21 47.1768 1127.73 47.4365C1128.25 47.6963 1128.65 48.0563 1128.92 48.5166C1129.18 48.9723 1129.32 49.4941 1129.32 50.082C1129.32 50.7201 1129.18 51.2646 1128.92 51.7158C1128.65 52.167 1128.25 52.5111 1127.73 52.748C1127.21 52.9805 1126.58 53.0967 1125.83 53.0967ZM1130.37 53.3838V53.2266C1130.37 52.6934 1130.44 52.1989 1130.6 51.7432C1130.75 51.2829 1130.98 50.8841 1131.27 50.5469C1131.56 50.2051 1131.91 49.9408 1132.33 49.7539C1132.74 49.5625 1133.21 49.4668 1133.72 49.4668C1134.24 49.4668 1134.71 49.5625 1135.12 49.7539C1135.54 49.9408 1135.9 50.2051 1136.19 50.5469C1136.49 50.8841 1136.71 51.2829 1136.87 51.7432C1137.02 52.1989 1137.1 52.6934 1137.1 53.2266V53.3838C1137.1 53.917 1137.02 54.4115 1136.87 54.8672C1136.71 55.3229 1136.49 55.7217 1136.19 56.0635C1135.9 56.4007 1135.54 56.665 1135.13 56.8564C1134.72 57.0433 1134.25 57.1367 1133.74 57.1367C1133.22 57.1367 1132.75 57.0433 1132.33 56.8564C1131.92 56.665 1131.56 56.4007 1131.27 56.0635C1130.98 55.7217 1130.75 55.3229 1130.6 54.8672C1130.44 54.4115 1130.37 53.917 1130.37 53.3838ZM1131.63 53.2266V53.3838C1131.63 53.7529 1131.67 54.1016 1131.76 54.4297C1131.85 54.7533 1131.98 55.0404 1132.15 55.291C1132.33 55.5417 1132.55 55.7399 1132.81 55.8857C1133.08 56.027 1133.38 56.0977 1133.74 56.0977C1134.08 56.0977 1134.38 56.027 1134.64 55.8857C1134.91 55.7399 1135.13 55.5417 1135.3 55.291C1135.47 55.0404 1135.6 54.7533 1135.69 54.4297C1135.78 54.1016 1135.83 53.7529 1135.83 53.3838V53.2266C1135.83 52.862 1135.78 52.5179 1135.69 52.1943C1135.6 51.8662 1135.47 51.5768 1135.29 51.3262C1135.12 51.071 1134.9 50.8704 1134.64 50.7246C1134.38 50.5788 1134.07 50.5059 1133.72 50.5059C1133.38 50.5059 1133.07 50.5788 1132.81 50.7246C1132.55 50.8704 1132.33 51.071 1132.15 51.3262C1131.98 51.5768 1131.85 51.8662 1131.76 52.1943C1131.67 52.5179 1131.63 52.862 1131.63 53.2266ZM1139.95 50.7656V57H1138.68V49.6035H1139.92L1139.95 50.7656ZM1142.26 49.5625L1142.25 50.7383C1142.15 50.7155 1142.05 50.7018 1141.95 50.6973C1141.86 50.6882 1141.76 50.6836 1141.64 50.6836C1141.35 50.6836 1141.09 50.7292 1140.87 50.8203C1140.64 50.9115 1140.45 51.0391 1140.3 51.2031C1140.14 51.3672 1140.02 51.5632 1139.93 51.791C1139.84 52.0143 1139.79 52.2604 1139.76 52.5293L1139.4 52.7344C1139.4 52.2878 1139.45 51.8685 1139.53 51.4766C1139.62 51.0846 1139.76 50.7383 1139.95 50.4375C1140.14 50.1322 1140.37 49.8952 1140.66 49.7266C1140.95 49.5534 1141.3 49.4668 1141.7 49.4668C1141.79 49.4668 1141.9 49.4782 1142.01 49.501C1142.13 49.5192 1142.21 49.5397 1142.26 49.5625ZM1146.87 49.6035V50.5742H1142.87V49.6035H1146.87ZM1144.22 47.8057H1145.49V55.168C1145.49 55.4186 1145.53 55.6077 1145.6 55.7354C1145.68 55.863 1145.78 55.9473 1145.9 55.9883C1146.03 56.0293 1146.16 56.0498 1146.3 56.0498C1146.4 56.0498 1146.51 56.0407 1146.63 56.0225C1146.75 55.9997 1146.84 55.9814 1146.89 55.9678L1146.9 57C1146.8 57.0319 1146.67 57.0615 1146.5 57.0889C1146.35 57.1208 1146.15 57.1367 1145.92 57.1367C1145.61 57.1367 1145.33 57.0752 1145.07 56.9521C1144.81 56.8291 1144.6 56.624 1144.45 56.3369C1144.3 56.0452 1144.22 55.6533 1144.22 55.1611V47.8057ZM1147.88 53.3838V53.2266C1147.88 52.6934 1147.96 52.1989 1148.11 51.7432C1148.27 51.2829 1148.49 50.8841 1148.78 50.5469C1149.07 50.2051 1149.43 49.9408 1149.84 49.7539C1150.26 49.5625 1150.72 49.4668 1151.24 49.4668C1151.75 49.4668 1152.22 49.5625 1152.64 49.7539C1153.06 49.9408 1153.41 50.2051 1153.7 50.5469C1154 50.8841 1154.22 51.2829 1154.38 51.7432C1154.53 52.1989 1154.61 52.6934 1154.61 53.2266V53.3838C1154.61 53.917 1154.53 54.4115 1154.38 54.8672C1154.22 55.3229 1154 55.7217 1153.7 56.0635C1153.41 56.4007 1153.06 56.665 1152.64 56.8564C1152.23 57.0433 1151.77 57.1367 1151.25 57.1367C1150.73 57.1367 1150.26 57.0433 1149.85 56.8564C1149.43 56.665 1149.08 56.4007 1148.78 56.0635C1148.49 55.7217 1148.27 55.3229 1148.11 54.8672C1147.96 54.4115 1147.88 53.917 1147.88 53.3838ZM1149.14 53.2266V53.3838C1149.14 53.7529 1149.19 54.1016 1149.27 54.4297C1149.36 54.7533 1149.49 55.0404 1149.66 55.291C1149.84 55.5417 1150.06 55.7399 1150.33 55.8857C1150.59 56.027 1150.9 56.0977 1151.25 56.0977C1151.6 56.0977 1151.9 56.027 1152.16 55.8857C1152.42 55.7399 1152.64 55.5417 1152.81 55.291C1152.99 55.0404 1153.12 54.7533 1153.2 54.4297C1153.3 54.1016 1153.34 53.7529 1153.34 53.3838V53.2266C1153.34 52.862 1153.3 52.5179 1153.2 52.1943C1153.12 51.8662 1152.99 51.5768 1152.81 51.3262C1152.63 51.071 1152.42 50.8704 1152.15 50.7246C1151.89 50.5788 1151.59 50.5059 1151.24 50.5059C1150.89 50.5059 1150.58 50.5788 1150.32 50.7246C1150.06 50.8704 1149.84 51.071 1149.66 51.3262C1149.49 51.5768 1149.36 51.8662 1149.27 52.1943C1149.19 52.5179 1149.14 52.862 1149.14 53.2266ZM1163.55 47.9287L1160.25 57H1158.91L1162.7 47.0469H1163.57L1163.55 47.9287ZM1166.31 57L1163.01 47.9287L1162.99 47.0469H1163.85L1167.66 57H1166.31ZM1166.14 53.3154V54.3955H1160.55V53.3154H1166.14ZM1170.18 46.5V57H1168.91V46.5H1170.18ZM1175.28 57.1367C1174.76 57.1367 1174.3 57.0501 1173.88 56.877C1173.46 56.6992 1173.1 56.4508 1172.8 56.1318C1172.51 55.8128 1172.28 55.4346 1172.12 54.9971C1171.96 54.5596 1171.88 54.0811 1171.88 53.5615V53.2744C1171.88 52.6729 1171.97 52.1374 1172.15 51.668C1172.32 51.194 1172.57 50.793 1172.87 50.4648C1173.18 50.1367 1173.52 49.8883 1173.91 49.7197C1174.3 49.5511 1174.7 49.4668 1175.11 49.4668C1175.64 49.4668 1176.1 49.5579 1176.48 49.7402C1176.87 49.9225 1177.18 50.1777 1177.43 50.5059C1177.68 50.8294 1177.86 51.2122 1177.98 51.6543C1178.1 52.0918 1178.16 52.5703 1178.16 53.0898V53.6572H1172.63V52.625H1176.89V52.5293C1176.87 52.2012 1176.8 51.8822 1176.69 51.5723C1176.57 51.2624 1176.39 51.0072 1176.14 50.8066C1175.89 50.6061 1175.55 50.5059 1175.11 50.5059C1174.83 50.5059 1174.56 50.5674 1174.32 50.6904C1174.08 50.8089 1173.87 50.9867 1173.7 51.2236C1173.53 51.4606 1173.39 51.75 1173.29 52.0918C1173.2 52.4336 1173.15 52.8278 1173.15 53.2744V53.5615C1173.15 53.9124 1173.2 54.2428 1173.29 54.5527C1173.4 54.8581 1173.54 55.127 1173.73 55.3594C1173.92 55.5918 1174.15 55.7741 1174.42 55.9062C1174.69 56.0384 1175 56.1045 1175.35 56.1045C1175.79 56.1045 1176.17 56.0133 1176.48 55.8311C1176.79 55.6488 1177.06 55.4049 1177.29 55.0996L1178.06 55.708C1177.9 55.9495 1177.7 56.1797 1177.45 56.3984C1177.21 56.6172 1176.9 56.7949 1176.54 56.9316C1176.19 57.0684 1175.76 57.1367 1175.28 57.1367ZM1184.42 49.6035H1185.57V56.8428C1185.57 57.4945 1185.44 58.0505 1185.18 58.5107C1184.91 58.971 1184.54 59.3197 1184.07 59.5566C1183.6 59.7982 1183.06 59.9189 1182.44 59.9189C1182.19 59.9189 1181.89 59.8779 1181.54 59.7959C1181.2 59.7184 1180.86 59.584 1180.53 59.3926C1180.2 59.2057 1179.92 58.9528 1179.7 58.6338L1180.36 57.8818C1180.67 58.2555 1181 58.5153 1181.33 58.6611C1181.68 58.807 1182.01 58.8799 1182.35 58.8799C1182.75 58.8799 1183.09 58.8047 1183.38 58.6543C1183.68 58.5039 1183.9 58.2806 1184.06 57.9844C1184.23 57.6927 1184.31 57.3327 1184.31 56.9043V51.2305L1184.42 49.6035ZM1179.33 53.3838V53.2402C1179.33 52.6751 1179.4 52.1624 1179.53 51.7021C1179.67 51.2373 1179.86 50.8385 1180.11 50.5059C1180.37 50.1732 1180.67 49.918 1181.03 49.7402C1181.39 49.5579 1181.8 49.4668 1182.25 49.4668C1182.71 49.4668 1183.12 49.5488 1183.47 49.7129C1183.82 49.8724 1184.11 50.1071 1184.36 50.417C1184.6 50.7223 1184.8 51.0915 1184.94 51.5244C1185.08 51.9574 1185.18 52.4473 1185.23 52.9941V53.623C1185.18 54.1654 1185.08 54.653 1184.94 55.0859C1184.8 55.5189 1184.6 55.888 1184.36 56.1934C1184.11 56.4987 1183.82 56.7334 1183.47 56.8975C1183.12 57.057 1182.71 57.1367 1182.24 57.1367C1181.79 57.1367 1181.39 57.0433 1181.03 56.8564C1180.68 56.6696 1180.37 56.4076 1180.12 56.0703C1179.86 55.7331 1179.67 55.3366 1179.53 54.8809C1179.4 54.4206 1179.33 53.9215 1179.33 53.3838ZM1180.6 53.2402V53.3838C1180.6 53.7529 1180.63 54.0993 1180.71 54.4229C1180.78 54.7464 1180.9 55.0312 1181.05 55.2773C1181.21 55.5234 1181.42 55.7171 1181.66 55.8584C1181.91 55.9951 1182.2 56.0635 1182.54 56.0635C1182.96 56.0635 1183.31 55.9746 1183.58 55.7969C1183.86 55.6191 1184.07 55.3844 1184.23 55.0928C1184.4 54.8011 1184.52 54.4844 1184.62 54.1426V52.4951C1184.57 52.2445 1184.49 52.0029 1184.38 51.7705C1184.28 51.5335 1184.15 51.3239 1183.99 51.1416C1183.83 50.9548 1183.63 50.8066 1183.39 50.6973C1183.15 50.5879 1182.88 50.5332 1182.56 50.5332C1182.21 50.5332 1181.91 50.6061 1181.66 50.752C1181.42 50.8932 1181.21 51.0892 1181.05 51.3398C1180.9 51.5859 1180.78 51.873 1180.71 52.2012C1180.63 52.5247 1180.6 52.8711 1180.6 53.2402ZM1188.76 50.7656V57H1187.49V49.6035H1188.72L1188.76 50.7656ZM1191.07 49.5625L1191.06 50.7383C1190.96 50.7155 1190.86 50.7018 1190.76 50.6973C1190.67 50.6882 1190.56 50.6836 1190.45 50.6836C1190.15 50.6836 1189.9 50.7292 1189.67 50.8203C1189.45 50.9115 1189.26 51.0391 1189.11 51.2031C1188.95 51.3672 1188.83 51.5632 1188.74 51.791C1188.65 52.0143 1188.59 52.2604 1188.57 52.5293L1188.21 52.7344C1188.21 52.2878 1188.25 51.8685 1188.34 51.4766C1188.43 51.0846 1188.57 50.7383 1188.76 50.4375C1188.94 50.1322 1189.18 49.8952 1189.47 49.7266C1189.76 49.5534 1190.11 49.4668 1190.51 49.4668C1190.6 49.4668 1190.7 49.4782 1190.82 49.501C1190.94 49.5192 1191.02 49.5397 1191.07 49.5625ZM1195.17 57.1367C1194.65 57.1367 1194.19 57.0501 1193.77 56.877C1193.35 56.6992 1193 56.4508 1192.7 56.1318C1192.4 55.8128 1192.17 55.4346 1192.01 54.9971C1191.85 54.5596 1191.77 54.0811 1191.77 53.5615V53.2744C1191.77 52.6729 1191.86 52.1374 1192.04 51.668C1192.22 51.194 1192.46 50.793 1192.76 50.4648C1193.07 50.1367 1193.42 49.8883 1193.8 49.7197C1194.19 49.5511 1194.59 49.4668 1195.01 49.4668C1195.53 49.4668 1195.99 49.5579 1196.37 49.7402C1196.76 49.9225 1197.08 50.1777 1197.32 50.5059C1197.57 50.8294 1197.75 51.2122 1197.87 51.6543C1197.99 52.0918 1198.05 52.5703 1198.05 53.0898V53.6572H1192.52V52.625H1196.78V52.5293C1196.76 52.2012 1196.7 51.8822 1196.58 51.5723C1196.46 51.2624 1196.28 51.0072 1196.03 50.8066C1195.78 50.6061 1195.44 50.5059 1195.01 50.5059C1194.72 50.5059 1194.45 50.5674 1194.21 50.6904C1193.97 50.8089 1193.76 50.9867 1193.59 51.2236C1193.42 51.4606 1193.28 51.75 1193.19 52.0918C1193.09 52.4336 1193.04 52.8278 1193.04 53.2744V53.5615C1193.04 53.9124 1193.09 54.2428 1193.19 54.5527C1193.29 54.8581 1193.43 55.127 1193.62 55.3594C1193.81 55.5918 1194.04 55.7741 1194.31 55.9062C1194.58 56.0384 1194.89 56.1045 1195.24 56.1045C1195.68 56.1045 1196.06 56.0133 1196.37 55.8311C1196.68 55.6488 1196.95 55.4049 1197.19 55.0996L1197.95 55.708C1197.79 55.9495 1197.59 56.1797 1197.34 56.3984C1197.1 56.6172 1196.79 56.7949 1196.43 56.9316C1196.08 57.0684 1195.66 57.1367 1195.17 57.1367ZM1200.67 55.4961V56.5146C1200.67 56.9294 1200.57 57.3669 1200.36 57.8271C1200.15 58.292 1199.85 58.6794 1199.48 58.9893L1198.76 58.4902C1198.9 58.2897 1199.03 58.0846 1199.13 57.875C1199.23 57.6699 1199.3 57.4557 1199.35 57.2324C1199.41 57.0137 1199.44 56.7812 1199.44 56.5352V55.4961H1200.67ZM1205.95 47.0469H1209.25C1209.99 47.0469 1210.62 47.1608 1211.14 47.3887C1211.66 47.6165 1212.05 47.9538 1212.32 48.4004C1212.59 48.8424 1212.73 49.387 1212.73 50.0342C1212.73 50.4899 1212.64 50.9069 1212.45 51.2852C1212.27 51.6589 1212 51.9779 1211.66 52.2422C1211.32 52.502 1210.91 52.6956 1210.43 52.8232L1210.06 52.9668H1206.96L1206.95 51.8936H1209.29C1209.76 51.8936 1210.15 51.8115 1210.47 51.6475C1210.78 51.4788 1211.02 51.2533 1211.18 50.9707C1211.34 50.6882 1211.42 50.376 1211.42 50.0342C1211.42 49.6514 1211.34 49.3164 1211.19 49.0293C1211.04 48.7422 1210.81 48.5212 1210.48 48.3662C1210.16 48.2067 1209.75 48.127 1209.25 48.127H1207.27V57H1205.95V47.0469ZM1211.77 57L1209.35 52.4883L1210.72 52.4814L1213.18 56.918V57H1211.77ZM1219.88 54.4844C1219.88 54.252 1219.85 54.0469 1219.77 53.8691C1219.7 53.6868 1219.58 53.5228 1219.4 53.377C1219.23 53.2311 1218.99 53.0921 1218.68 52.96C1218.37 52.8278 1217.99 52.6934 1217.52 52.5566C1217.02 52.4108 1216.58 52.249 1216.18 52.0713C1215.79 51.889 1215.45 51.6816 1215.17 51.4492C1214.88 51.2168 1214.67 50.9502 1214.52 50.6494C1214.37 50.3486 1214.29 50.0046 1214.29 49.6172C1214.29 49.2298 1214.37 48.8721 1214.53 48.5439C1214.69 48.2158 1214.92 47.931 1215.21 47.6895C1215.51 47.4434 1215.87 47.252 1216.29 47.1152C1216.7 46.9785 1217.16 46.9102 1217.67 46.9102C1218.42 46.9102 1219.05 47.0537 1219.57 47.3408C1220.1 47.6234 1220.5 47.9948 1220.77 48.4551C1221.04 48.9108 1221.18 49.3984 1221.18 49.918H1219.87C1219.87 49.5443 1219.79 49.2139 1219.63 48.9268C1219.47 48.6351 1219.23 48.4072 1218.9 48.2432C1218.58 48.0745 1218.17 47.9902 1217.67 47.9902C1217.2 47.9902 1216.82 48.0609 1216.51 48.2021C1216.21 48.3434 1215.98 48.5348 1215.83 48.7764C1215.68 49.0179 1215.61 49.2936 1215.61 49.6035C1215.61 49.8132 1215.65 50.0046 1215.74 50.1777C1215.83 50.3464 1215.97 50.5036 1216.16 50.6494C1216.35 50.7952 1216.59 50.9297 1216.88 51.0527C1217.18 51.1758 1217.53 51.2943 1217.94 51.4082C1218.51 51.5677 1218.99 51.7454 1219.4 51.9414C1219.81 52.1374 1220.15 52.3584 1220.42 52.6045C1220.68 52.846 1220.88 53.1217 1221.01 53.4316C1221.14 53.737 1221.21 54.0833 1221.21 54.4707C1221.21 54.8763 1221.13 55.2432 1220.96 55.5713C1220.8 55.8994 1220.56 56.1797 1220.26 56.4121C1219.95 56.6445 1219.59 56.8245 1219.16 56.9521C1218.73 57.0752 1218.26 57.1367 1217.74 57.1367C1217.28 57.1367 1216.82 57.0729 1216.38 56.9453C1215.93 56.8177 1215.53 56.6263 1215.17 56.3711C1214.81 56.1159 1214.52 55.8014 1214.3 55.4277C1214.08 55.0495 1213.98 54.612 1213.98 54.1152H1215.29C1215.29 54.457 1215.35 54.751 1215.49 54.9971C1215.62 55.2386 1215.8 55.4391 1216.03 55.5986C1216.26 55.7581 1216.52 55.8766 1216.81 55.9541C1217.11 56.027 1217.42 56.0635 1217.74 56.0635C1218.2 56.0635 1218.59 55.9997 1218.9 55.8721C1219.22 55.7445 1219.46 55.5622 1219.63 55.3252C1219.8 55.0882 1219.88 54.8079 1219.88 54.4844Z" fill="#4B2995"/>
<rect x="1242" y="33" width="38" height="38" rx="6" fill="#F1E9C9"/>
<path d="M1269.24 46.6203L1268.19 52.3695C1268.11 52.8445 1267.86 53.274 1267.49 53.5834C1267.11 53.8927 1266.65 54.0623 1266.16 54.0625H1256.2L1256.57 56.125H1265.81C1266.22 56.125 1266.62 56.246 1266.96 56.4726C1267.3 56.6992 1267.56 57.0213 1267.72 57.3982C1267.87 57.7751 1267.91 58.1898 1267.84 58.5899C1267.76 58.99 1267.56 59.3575 1267.27 59.6459C1266.98 59.9344 1266.61 60.1308 1266.21 60.2104C1265.81 60.2899 1265.4 60.2491 1265.02 60.093C1264.65 59.9369 1264.32 59.6725 1264.1 59.3334C1263.87 58.9942 1263.75 58.5954 1263.75 58.1875C1263.75 57.9531 1263.79 57.7205 1263.87 57.5H1258.82C1258.9 57.7205 1258.94 57.9531 1258.94 58.1875C1258.94 58.5203 1258.86 58.8482 1258.7 59.1434C1258.55 59.4386 1258.33 59.6923 1258.06 59.8827C1257.78 60.0732 1257.47 60.1947 1257.14 60.2371C1256.81 60.2794 1256.47 60.2413 1256.16 60.1259C1255.85 60.0105 1255.57 59.8213 1255.35 59.5745C1255.12 59.3276 1254.96 59.0304 1254.88 58.7083C1254.79 58.3861 1254.79 58.0486 1254.87 57.7244C1254.94 57.4003 1255.09 57.0992 1255.31 56.8469L1252.93 43.75H1251.38C1251.19 43.75 1251.02 43.6776 1250.89 43.5486C1250.76 43.4197 1250.69 43.2448 1250.69 43.0625C1250.69 42.8802 1250.76 42.7053 1250.89 42.5764C1251.02 42.4474 1251.19 42.375 1251.38 42.375H1252.93C1253.25 42.3757 1253.56 42.4886 1253.81 42.6942C1254.05 42.8998 1254.22 43.1852 1254.28 43.5008L1254.7 45.8125H1268.56C1268.66 45.8127 1268.76 45.8352 1268.85 45.8783C1268.94 45.9214 1269.02 45.984 1269.09 46.0617C1269.15 46.137 1269.2 46.2264 1269.23 46.3232C1269.26 46.42 1269.26 46.5216 1269.24 46.6203Z" fill="#C47F17"/>
</svg>
